<svg width="96" height="96" xmlns="http://www.w3.org/2000/svg" xmlns:xlink="http://www.w3.org/1999/xlink" xml:space="preserve" overflow="hidden"><defs><clipPath id="clip0"><rect x="592" y="312" width="96" height="96"/></clipPath></defs><g clip-path="url(#clip0)" transform="translate(-592 -312)"><path d="M607.998 326 605.998 326 605.998 394 673.967 394 673.967 392 607.998 392 607.998 326Z" fill="#000000" fill-rule="nonzero" fill-opacity="1"/><path d="M626 386.016 626 347.006 614 347.006 614 386.016ZM616 349.006 624 349.006 624 384.016 616 384.016Z" fill="#000000" fill-rule="nonzero" fill-opacity="1"/><path d="M642 386.016 642 326 630 326 630 386.016ZM632 328 640 328 640 384.016 632 384.016Z" fill="#000000" fill-rule="nonzero" fill-opacity="1"/><path d="M658 386.016 658 347.006 646 347.006 646 386.016ZM648 349.006 656 349.006 656 384.016 648 384.016Z" fill="#000000" fill-rule="nonzero" fill-opacity="1"/><path d="M662 386.016 674 386.016 674 364.011 662 364.011ZM664 366.011 672 366.011 672 384.016 664 384.016Z" fill="#000000" fill-rule="nonzero" fill-opacity="1"/></g></svg>