<svg width="97" height="97" xmlns="http://www.w3.org/2000/svg" xmlns:xlink="http://www.w3.org/1999/xlink" xml:space="preserve" overflow="hidden"><defs><clipPath id="clip0"><rect x="644" y="173" width="97" height="97"/></clipPath><clipPath id="clip1"><rect x="645" y="174" width="96" height="96"/></clipPath><clipPath id="clip2"><rect x="645" y="174" width="96" height="96"/></clipPath><clipPath id="clip3"><rect x="645" y="174" width="96" height="96"/></clipPath></defs><g clip-path="url(#clip0)" transform="translate(-644 -173)"><g clip-path="url(#clip1)"><g clip-path="url(#clip2)"><g clip-path="url(#clip3)"><path d="M76 14 82 14 82 82 14 82 14 76 76 76Z" fill="#000000" fill-rule="nonzero" fill-opacity="1" transform="matrix(-1 0 0 1 741 174)"/><path d="M59 35 70 35 70 70 59 70Z" fill="#000000" fill-rule="nonzero" fill-opacity="1" transform="matrix(-1 0 0 1 741 174)"/><path d="M44 14 55 14 55 70 44 70Z" fill="#000000" fill-rule="nonzero" fill-opacity="1" transform="matrix(-1 0 0 1 741 174)"/><path d="M29 35 40 35 40 70 29 70Z" fill="#000000" fill-rule="nonzero" fill-opacity="1" transform="matrix(-1 0 0 1 741 174)"/><path d="M14 52 25 52 25 70 14 70Z" fill="#000000" fill-rule="nonzero" fill-opacity="1" transform="matrix(-1 0 0 1 741 174)"/></g></g></g></g></svg>