<svg width="84" height="82" xmlns="http://www.w3.org/2000/svg" xmlns:xlink="http://www.w3.org/1999/xlink" xml:space="preserve" overflow="hidden"><defs><clipPath id="clip0"><rect x="873" y="428" width="84" height="82"/></clipPath><clipPath id="clip1"><rect x="874" y="428" width="83" height="82"/></clipPath><clipPath id="clip2"><rect x="874" y="428" width="83" height="82"/></clipPath><clipPath id="clip3"><rect x="874" y="428" width="83" height="82"/></clipPath></defs><g clip-path="url(#clip0)" transform="translate(-873 -428)"><g clip-path="url(#clip1)"><g clip-path="url(#clip2)"><g clip-path="url(#clip3)"><path d="M47.8333 10.9333C44.5021 9.56667 41.0854 8.79792 37.7542 8.54167 48.0042 17.425 51.9333 32.2021 46.4667 45.5271 41 58.8521 27.675 66.4542 14.1792 65.5146 16.7417 67.7354 19.7313 69.6146 22.9771 70.9812 39.5479 77.8146 58.5104 69.9563 65.3438 53.3854 72.1771 36.8146 64.4042 17.8521 47.8333 10.9333Z" stroke="#7F7F7F" stroke-width="0.854173" stroke-linecap="butt" stroke-linejoin="miter" stroke-miterlimit="4" stroke-opacity="1" fill="#F2F2F2" fill-rule="nonzero" fill-opacity="1" transform="matrix(-1.0122 0 0 1 957 428)"/></g></g></g></g></svg>