<svg width="97" height="97" xmlns="http://www.w3.org/2000/svg" xmlns:xlink="http://www.w3.org/1999/xlink" xml:space="preserve" overflow="hidden"><defs><clipPath id="clip0"><rect x="417" y="121" width="97" height="97"/></clipPath><clipPath id="clip1"><rect x="418" y="122" width="96" height="96"/></clipPath><clipPath id="clip2"><rect x="418" y="122" width="96" height="96"/></clipPath><clipPath id="clip3"><rect x="418" y="122" width="96" height="96"/></clipPath></defs><g clip-path="url(#clip0)" transform="translate(-417 -121)"><g clip-path="url(#clip1)"><g clip-path="url(#clip2)"><g clip-path="url(#clip3)"><path d="M428 195 504 195 504 144 428 144ZM430 193 430 179 453 179 453 193ZM477 163 477 177 455 177 455 163ZM455 161 455 146 477 146 477 161ZM479 163 502 163 502 177 479 177ZM453 177 430 177 430 163 453 163ZM455 193 455 179 477 179 477 193ZM479 193 479 179 502 179 502 193ZM502 161 479 161 479 146 502 146ZM453 146 453 161 430 161 430 146Z" fill="#000000" fill-rule="nonzero" fill-opacity="1"/></g></g></g></g></svg>